<svg width="40px" xmlns="http://www.w3.org/2000/svg" viewBox="0 0 13.74 17.74"><defs><style>.cls-1{fill-rule:evenodd;}</style></defs><title>Asset 1</title><g id="Layer_2" data-name="Layer 2"><g id="ELEMENTS"><path class="cls-1" d="M5.75,11.57l0,.14C5.05,14.27,5,14.83,4.31,16a13.3,13.3,0,0,1-1.08,1.61c0,.06-.08.13-.17.11s-.11-.11-.12-.19a13,13,0,0,1-.14-2.33c0-1,.16-1.37,1.48-6.91a.46.46,0,0,0,0-.23A3.88,3.88,0,0,1,4.14,5.5c.6-1.89,2.74-2,3.11-.48.23,1-.38,2.23-.84,4.09-.39,1.54,1.42,2.63,3,1.51s2-3.52,1.88-5.28c-.21-3.5-4-4.26-6.49-3.13C2,3.5,1.33,7,2.59,8.55c.16.2.29.33.23.53s-.15.64-.24.95a.33.33,0,0,1-.5.22A2.76,2.76,0,0,1,.92,9.38,5.5,5.5,0,0,1,1,3.21,7.41,7.41,0,0,1,8.11.05a6.05,6.05,0,0,1,5.57,5,8.32,8.32,0,0,1-1.53,5.85c-1.81,2.25-4.76,2.4-6.11,1A2.68,2.68,0,0,1,5.75,11.57Z"/></g></g></svg>